<svg width="32" height="32" viewBox="0 0 32 32" fill="none" xmlns="http://www.w3.org/2000/svg">
<path d="M11.9998 29.3337H19.9998C26.6665 29.3337 29.3332 26.667 29.3332 20.0003V12.0003C29.3332 5.33366 26.6665 2.66699 19.9998 2.66699H11.9998C5.33317 2.66699 2.6665 5.33366 2.6665 12.0003V20.0003C2.6665 26.667 5.33317 29.3337 11.9998 29.3337Z" stroke="#FFEBE5" stroke-width="2" stroke-linecap="round" stroke-linejoin="round"/>
<path d="M16.0002 20.6663C18.5775 20.6663 20.6668 18.577 20.6668 15.9997C20.6668 13.4223 18.5775 11.333 16.0002 11.333C13.4228 11.333 11.3335 13.4223 11.3335 15.9997C11.3335 18.577 13.4228 20.6663 16.0002 20.6663Z" stroke="#FFEBE5" stroke-width="2" stroke-linecap="round" stroke-linejoin="round"/>
<path d="M23.5147 9.33366H23.5301" stroke="#FFEBE5" stroke-width="2" stroke-linecap="round" stroke-linejoin="round"/>
</svg>
